<?xml version="1.0" encoding="utf-8" ?><svg xmlns="http://www.w3.org/2000/svg" xmlns:xlink="http://www.w3.org/1999/xlink" width="937" height="1024" viewBox="0 0 937 1024"><path fill="#066047" transform="scale(2.24163 2.2407)" d="M122.884 425.86C112.525 419.472 101.217 413.171 90.6254 407.084L40.0079 377.931L20.3332 366.602C16.0191 364.13 4.7736 358.906 4.30578 353.661C3.77701 347.732 3.98872 340.7 3.99329 334.635L3.99285 291.908L3.99804 185.678L3.97746 148.018C3.97826 141.395 3.96204 134.743 4.02754 128.123C4.04525 126.333 4.33411 122.373 5.34289 120.857C6.26264 119.475 8.12696 117.7 9.56638 116.842C19.4289 110.964 29.4787 105.269 39.4078 99.5023L104.417 62.0053L172.33 22.7966C182.097 17.1794 192.014 11.4595 201.792 5.82552C206.565 3.07542 209.433 2.13313 214.503 4.95413C220.905 8.51626 227.328 12.2843 233.728 15.9718L267.918 35.6889L342.666 78.8171L388.649 105.361L402.685 113.452C415.034 120.662 413.99 120.605 414.01 134.923L414.019 151.349L413.996 208.505L413.975 304.352L413.997 334.934C414.005 340.595 414.042 346.269 413.969 351.921C413.952 353.193 413.385 355.85 412.538 356.752C408.482 361.072 401.494 364.451 396.42 367.36L376.972 378.561L325.199 408.401C315.325 414.079 304.828 419.905 295.123 425.774C294.264 427.105 293.693 430.503 293.206 432.101C290.22 442.049 278.736 452.039 268.148 452.767C260.518 453.293 251.239 452.992 243.364 452.991L198.456 452.991L168.386 452.99C158.389 452.992 147.438 454.169 138.505 448.869C129.167 443.328 125.6 435.927 122.884 425.86ZM24.876 151.989C29.5914 153.939 38.8833 156.441 44.001 157.965L74.2399 167.013C91.6615 155.175 110.06 142.727 127.652 131.219C129.8 132.372 133.839 136.129 135.881 137.927L146.877 147.572L182.768 178.972C188.474 183.971 194.459 189.014 200.091 194.049C210.284 189.27 221.593 184.339 231.95 179.881C245.614 173.411 259.872 167.683 273.592 161.291C275.847 160.24 278.35 159.124 280.67 158.261C282.753 159.343 288.525 164.73 290.615 166.611L304.093 178.697L361.844 230.124C368.514 227.306 375.621 224.943 382.389 222.324C386.046 220.909 389.803 219.765 393.278 217.904L393.149 159.325L393.16 141.835C393.163 139.298 393.293 134.908 393.074 132.543C390.105 130.22 380.966 125.303 377.151 123.116L345.738 105.031L238.367 42.9698L219.021 31.7815C217.218 30.7326 209.962 26.0745 208.452 26.1961C193.93 34.7433 179.362 43.2099 164.746 51.5954L79.7968 100.695L43.2264 121.751C41.1947 122.923 25.023 131.61 25.0066 133.138C24.949 138.53 24.398 146.745 24.876 151.989Z"/><path fill="#FEFEFE" transform="scale(2.24163 2.2407)" d="M122.884 425.86C122.393 415.586 123.889 407.309 131.073 399.326C136.946 392.893 145.149 389.077 153.853 388.731C161.01 388.418 170.419 388.714 177.793 388.715L225.686 388.716L251.813 388.705C256.263 388.697 264.412 388.463 268.383 389.157C274.63 390.25 280.427 393.126 285.077 397.437C291.382 403.397 295.053 411.623 295.277 420.297C295.332 422.072 295.206 423.992 295.123 425.774C294.264 427.105 293.693 430.503 293.206 432.101C290.22 442.049 278.736 452.039 268.148 452.767C260.518 453.293 251.239 452.992 243.364 452.991L198.456 452.991L168.386 452.99C158.389 452.992 147.438 454.169 138.505 448.869C129.167 443.328 125.6 435.927 122.884 425.86Z"/><path fill="#066047" transform="scale(2.24163 2.2407)" d="M158.679 394.124L232.462 394.115L252.92 394.102C257.494 394.102 263.922 393.909 268.297 394.706C273.309 395.645 277.929 398.047 281.575 401.61C286.925 406.742 289.682 413.336 289.791 420.714C289.939 427.981 287.105 434.991 281.949 440.113C275.31 446.796 268.551 447.9 259.657 447.98L184.786 447.99L165.014 447.99C160.27 447.989 154.254 448.192 149.689 447.362C144.729 446.456 140.148 444.099 136.527 440.589C131.28 435.638 128.279 428.761 128.218 421.547C128.034 414.337 130.774 407.358 135.815 402.198C142.696 395.096 149.518 394.242 158.679 394.124Z"/><path fill="#FEFEFE" transform="scale(2.24163 2.2407)" d="M199.441 402.993C203.216 402.973 206.992 402.978 210.767 403.007L210.762 436.015L200.895 436.015C197.095 431.448 192.476 426.152 188.963 421.468C189.371 426.021 189.233 431.374 189.236 436.002C185.38 436.05 181.477 436.016 177.618 436.013C177.99 425.73 177.676 413.389 177.658 402.994C180.892 402.974 184.126 402.978 187.36 403.006C191.377 407.536 195.744 412.868 199.5 417.616C199.269 413.07 199.37 407.552 199.441 402.993Z"/><path fill="#FEFEFE" transform="scale(2.24163 2.2407)" d="M140.772 403.026C144.734 402.969 148.695 402.962 152.657 403.005L152.6 415.562C152.591 417.942 152.38 420.556 152.792 422.897C153.002 424.087 153.447 425.316 154.234 426.246C154.948 427.089 155.922 427.612 157.035 427.649C158.227 427.688 159.655 427.258 160.504 426.391C163.208 423.629 162.135 407.488 162.207 402.997C166.021 402.971 169.835 402.974 173.649 403.005C173.52 405.71 173.632 409.348 173.633 412.125C173.636 418.713 174.657 427.456 169.649 432.457C163.6 438.496 150.939 438.527 144.885 432.471C140.149 427.732 140.772 419.79 140.789 413.592L140.772 403.026Z"/><path fill="#FEFEFE" transform="scale(2.24163 2.2407)" d="M225.881 402.988C229.753 402.966 233.626 402.973 237.498 403.009C242.409 413.367 247.262 425.355 251.954 435.952C247.887 436.036 243.82 436.054 239.752 436.005C239.339 434.805 238.259 430.993 237.523 430.433C233.621 430.253 229.671 430.509 225.677 430.28C225.019 432.224 224.299 434.147 223.519 436.046L211.586 435.989C214.32 430.403 217.038 423.373 219.677 417.562C221.256 414.082 224.752 406.448 225.881 402.988Z"/><path fill="#066047" transform="scale(2.24163 2.2407)" d="M231.553 414.667C231.948 415.055 233.958 420.726 234.33 421.73C233.679 422.134 232.511 422.015 231.688 422.014C230.656 422.041 230.228 422.065 229.218 421.891C229.115 421.517 231.257 415.546 231.553 414.667Z"/><path fill="#FEFEFE" transform="scale(2.24163 2.2407)" d="M252.772 403.02C256.734 402.97 260.697 402.965 264.66 403.007C264.445 410.851 264.709 419.247 264.589 427.216C269.564 427.188 274.539 427.191 279.514 427.222L279.513 435.695C278.902 436.273 255.663 436.018 252.953 436.015C252.475 425.926 252.798 413.317 252.772 403.02Z"/><path fill="#FEFEFE" transform="scale(2.24163 2.2407)" d="M267.394 209.107C275.657 208.143 285.527 210.725 292.185 215.777C298.683 220.712 302.944 228.036 304.022 236.125C306.282 252.837 295.136 267.505 278.742 270.697C277.086 271.019 275.422 271.235 273.751 271.458C264.291 272.139 254.726 269.901 247.319 263.767C241.094 258.568 237.221 251.085 236.571 243C235.805 234.714 238.446 226.473 243.886 220.177C249.965 213.099 258.26 209.8 267.394 209.107Z"/><path fill="#066047" transform="scale(2.24163 2.2407)" d="M269.991 225.607C272.959 225.688 274.953 226.024 277.503 227.705C285.544 233.007 285.446 247.624 277.393 252.858C275.327 254.201 273.485 254.581 271.095 255.027C253.523 255.253 252.064 227.011 269.991 225.607Z"/><path fill="#FEFEFE" transform="scale(2.24163 2.2407)" d="M203.268 285.976L219.452 285.995C221.444 291.499 225.66 300.321 228.125 305.947C232.005 314.799 236.217 324.062 239.885 332.966C234.39 333.138 228.337 333.027 222.799 333.034C222.357 330.884 220.725 327.681 220.023 324.982L202.459 325.013L199.515 333.061C179.81 332.752 159.495 333.042 139.732 333.014C139.717 330.265 139.806 326.087 139.518 323.471C144.674 317.07 150.383 310.952 155.639 304.62C157.333 302.579 159.166 300.477 160.979 298.549C155.6 298.991 146.18 298.676 140.423 298.646C140.367 294.428 140.37 290.21 140.431 285.993L182.404 286.017C182.322 288.883 182.221 292.774 182.516 295.569C175.213 303.509 168.252 312.709 160.745 320.751C166.712 320.364 177.292 320.573 183.393 320.711C183.189 323.962 183.323 328.548 183.188 332.045L203.268 285.976Z"/><path fill="#066047" transform="scale(2.24163 2.2407)" d="M211.08 302.405C211.586 302.872 214.602 311.53 215.463 313.145L212.062 313.204L207.115 313.198C208.418 309.74 210.038 305.905 211.08 302.405Z"/><path fill="#FEFEFE" transform="scale(2.24163 2.2407)" d="M181.499 210.208L230.515 210.222L230.526 225.792L201.751 225.828L201.758 232.409C209.422 232.07 219.008 232.351 226.825 232.353C226.842 237.212 226.769 242.167 226.899 247.015L201.829 247.044C201.632 248.943 201.737 252.693 201.745 254.723C203.707 254.482 209.4 254.612 211.528 254.614C218.233 254.645 224.938 254.642 231.643 254.605C231.608 259.742 231.616 264.879 231.668 270.015L181.488 270.014L181.499 210.208Z"/><path fill="#FEFEFE" transform="scale(2.24163 2.2407)" d="M144.403 209.108C156.173 207.795 167.139 211.927 175.086 220.61C170.954 223.998 165.882 228.629 161.893 232.22C160.518 230.783 159.056 229.441 157.399 228.335C153.72 225.831 149.177 224.942 144.825 225.875C141.43 226.581 138.474 228.652 136.651 231.602C133.756 236.202 133.531 243.385 136.14 248.087C140.456 255.863 147.919 255.525 155.263 253.812L155.267 238.372C161.163 238.297 167.51 238.538 173.324 238.355C173.469 246.095 172.932 256.38 173.517 263.844C158.371 272.62 138.822 275.69 124.081 263.835C111.282 253.542 109.959 232.567 120.534 220.268C126.745 213.046 135.016 209.799 144.403 209.108Z"/><path fill="#FEFEFE" transform="scale(2.24163 2.2407)" d="M292.435 285.991L307.831 285.965C318.302 285.957 327.708 285.293 336.154 293.185C340.493 297.24 342.504 303.164 342.538 308.993C342.583 316.47 340.829 321.013 335.688 326.329C327.328 333.749 318.878 333.048 308.571 333.042L292.333 333.019C292.631 329.733 292.392 321.85 292.39 318.296C292.343 307.528 292.357 296.759 292.435 285.991Z"/><path fill="#066047" transform="scale(2.24163 2.2407)" d="M308.743 298.565C313.169 298.986 318.681 297.684 322.371 300.879C327.328 305.171 326.985 312.945 322.991 317.691C318.733 321.262 314.189 320.328 308.752 320.402L308.743 298.565Z"/><path fill="#FEFEFE" transform="scale(2.24163 2.2407)" d="M242.206 285.994C250.314 285.962 267.534 285.083 274.539 287.354C278.867 288.757 282.765 291.504 284.83 295.648C286.908 299.816 287.201 305.384 285.659 309.771C284.258 313.753 281.393 316.783 277.607 318.588C280.311 321.628 284.816 329.115 287.686 332.931L285.063 333.01L269.969 333.01C267.852 329.425 264.596 325 262.233 321.343C260.881 321.389 259.885 321.35 258.533 321.279C258.48 325.156 258.526 329.126 258.528 333.01L242.222 333.026C242.047 317.69 241.991 301.317 242.206 285.994Z"/><path fill="#066047" transform="scale(2.24163 2.2407)" d="M258.52 298.253C261.851 298.535 265.597 297.982 268.485 300.056C271.216 302.018 270.367 305.156 268.658 307.538C265.815 309.689 262.129 309.08 258.505 309.016L258.52 298.253Z"/><path fill="#FEFEFE" transform="scale(2.24163 2.2407)" d="M32.7789 286.017C38.319 285.957 43.8597 285.957 49.3998 286.017C49.1567 291.227 49.3709 297.347 49.2707 302.717C53.2285 302.472 59.2269 302.59 63.2606 302.664L63.2743 285.995C68.734 285.965 74.1938 285.967 79.6534 286.003C79.3086 301.378 79.7681 317.456 79.578 332.98C74.2956 333.131 68.5695 333.026 63.2532 333.02L63.2624 315.996L49.324 316C49.4427 321.491 49.1113 327.587 49.4266 333.007L32.7711 333.014C32.9367 317.43 32.8057 301.616 32.7789 286.017Z"/><path fill="#FEFEFE" transform="scale(2.24163 2.2407)" d="M102.487 285.969L118.563 286.004C121.694 292.85 124.741 300.1 127.769 307.016C131.596 315.637 135.351 324.29 139.034 332.974C133.36 333.037 127.686 333.049 122.012 333.011C121.392 330.83 119.918 327.355 119.1 324.977L101.681 324.999C100.918 327.384 99.5823 330.627 98.6762 333.044L81.9512 332.997C84.1826 327.435 86.978 321.374 89.396 315.846L102.487 285.969Z"/><path fill="#066047" transform="scale(2.24163 2.2407)" d="M110.214 302.408C110.781 302.828 113.848 311.601 114.587 313.202L111.562 313.203L106.213 313.208C107.454 310.08 109.376 305.55 110.214 302.408Z"/><path fill="#FEFEFE" transform="scale(2.24163 2.2407)" d="M363.772 285.103C371.386 284.24 379.086 285.622 385.924 289.078C384.339 292.211 382.176 297.583 381.017 300.89C375.698 298.576 367.994 295.391 362.392 298.597C361.011 299.388 362.095 301.44 363.326 301.889C370.217 304.403 378.307 303.915 384.125 309.133C389.339 313.81 388.794 323.389 383.766 328.094C378.64 333.022 373.227 333.98 366.393 334.027C357.832 334.086 352.681 333.334 344.85 329.403C346.391 325.694 348.737 321.015 349.982 317.385C352.798 318.945 355.806 320.13 358.93 320.911C361.743 321.586 370.729 323.532 371.52 319.241C371.289 318.386 370.777 317.772 369.964 317.472C363.277 315.043 356.092 315.189 350.145 310.713C344.216 306.251 344.342 297.514 348.706 292.012C352.31 287.467 358.163 285.636 363.772 285.103Z"/></svg>